<svg width="16" height="12" viewBox="0 0 16 12" fill="none" xmlns="http://www.w3.org/2000/svg">
<path d="M15.3194 1.7925C14.8412 0.968127 13.5794 0.782502 11.6631 1.25125C10.776 0.565278 9.7142 0.141862 8.59845 0.0291056C7.48271 -0.0836511 6.3577 0.118771 5.35124 0.613377C4.34478 1.10798 3.4972 1.87495 2.9048 2.82714C2.31241 3.77933 1.99893 4.87857 1.99999 6C2.00007 6.25723 2.01635 6.5142 2.04874 6.76938C0.318112 8.5625 0.343112 9.625 0.681237 10.2075C0.999987 10.76 1.66499 11 2.53999 11C3.1475 10.9874 3.75143 10.9035 4.33936 10.75C5.22662 11.4353 6.28825 11.8581 7.40371 11.9704C8.51917 12.0828 9.64378 11.8801 10.6498 11.3854C11.6559 10.8907 12.5031 10.1239 13.0953 9.17195C13.6875 8.22001 14.0009 7.1211 14 6C14.0001 5.74403 13.984 5.48831 13.9519 5.23438C14.7331 4.42188 15.2531 3.65 15.43 2.98938C15.5519 2.53188 15.515 2.12938 15.3194 1.7925ZM7.99999 1C9.13245 1.00117 10.2311 1.38621 11.1165 2.09227C12.0019 2.79833 12.6218 3.7837 12.875 4.8875C11.8087 5.89125 10.3656 6.92063 8.99561 7.70813C7.27374 8.69625 5.77999 9.3125 4.58874 9.65C3.85503 8.9657 3.34434 8.07636 3.12315 7.09776C2.90196 6.11915 2.98051 5.09663 3.34859 4.16329C3.71666 3.22996 4.3572 2.42906 5.18682 1.86486C6.01644 1.30066 6.9967 0.999295 7.99999 1ZM1.54624 9.70563C1.45499 9.54875 1.50561 9.25313 1.68499 8.89313C1.86237 8.55583 2.07818 8.24019 2.32811 7.9525C2.57586 8.67031 2.95762 9.33457 3.45311 9.91C2.37499 10.0913 1.70249 9.97563 1.54624 9.70563ZM7.99999 11C7.15694 11.0009 6.32756 10.7871 5.58999 10.3788C6.94379 9.89995 8.25006 9.29609 9.49186 8.575C10.8406 7.80063 12.0344 6.96125 12.9962 6.1325C12.9606 7.43447 12.4188 8.67126 11.4859 9.58014C10.553 10.489 9.30245 10.9984 7.99999 11ZM14.4637 2.73063C14.3575 3.125 14.0769 3.57625 13.6744 4.05125C13.4273 3.33258 13.0454 2.66759 12.5494 2.09188C13.4375 1.945 14.26 1.95625 14.4556 2.29438C14.5119 2.3925 14.515 2.53938 14.4637 2.73063Z" fill="white"/>
</svg>
