<svg width="12" height="14" viewBox="0 0 12 14" fill="none" xmlns="http://www.w3.org/2000/svg">
<path d="M6 0C4.40926 0.0018196 2.88419 0.634545 1.75937 1.75937C0.634545 2.88419 0.0018196 4.40926 0 6C0 7.5 0.785 9.44125 2.10063 11.1875C3.42438 12.9469 4.88188 14 6 14C7.11812 14 8.57562 12.9494 9.89937 11.1875C11.215 9.4375 12 7.5 12 6C11.9982 4.40926 11.3655 2.88419 10.2406 1.75937C9.11581 0.634545 7.59074 0.0018196 6 0ZM9.10063 10.5887C8.015 12.0306 6.76938 13 6 13C5.23062 13 3.985 12.0306 2.89937 10.5887C1.72812 9.03125 1 7.27313 1 6C1 4.67392 1.52678 3.40215 2.46447 2.46447C3.40215 1.52678 4.67392 1 6 1C7.32608 1 8.59785 1.52678 9.53553 2.46447C10.4732 3.40215 11 4.67392 11 6C11 7.27313 10.2719 9.03125 9.10063 10.5887ZM5.5 7.5C5.5 6.83696 5.23661 6.20107 4.76777 5.73223C4.29893 5.26339 3.66304 5 3 5C2.73478 5 2.48043 5.10536 2.29289 5.29289C2.10536 5.48043 2 5.73478 2 6C2 6.66304 2.26339 7.29893 2.73223 7.76777C3.20107 8.23661 3.83696 8.5 4.5 8.5C4.76522 8.5 5.01957 8.39464 5.20711 8.20711C5.39464 8.01957 5.5 7.76522 5.5 7.5ZM3 6C3.39782 6 3.77936 6.15804 4.06066 6.43934C4.34196 6.72064 4.5 7.10218 4.5 7.5C4.10218 7.5 3.72064 7.34196 3.43934 7.06066C3.15804 6.77936 3 6.39782 3 6ZM9 5C8.33696 5 7.70107 5.26339 7.23223 5.73223C6.76339 6.20107 6.5 6.83696 6.5 7.5C6.5 7.76522 6.60536 8.01957 6.79289 8.20711C6.98043 8.39464 7.23478 8.5 7.5 8.5C7.8283 8.5 8.15339 8.43534 8.45671 8.3097C8.76002 8.18406 9.03562 7.99991 9.26777 7.76777C9.49991 7.53562 9.68406 7.26002 9.8097 6.95671C9.93534 6.65339 10 6.3283 10 6C10 5.73478 9.89464 5.48043 9.70711 5.29289C9.51957 5.10536 9.26522 5 9 5ZM7.5 7.5C7.5 7.10218 7.65804 6.72064 7.93934 6.43934C8.22064 6.15804 8.60218 6 9 6C9 6.39782 8.84196 6.77936 8.56066 7.06066C8.27936 7.34196 7.89782 7.5 7.5 7.5ZM7.5 10.5C7.5 10.6326 7.44732 10.7598 7.35355 10.8536C7.25979 10.9473 7.13261 11 7 11H5C4.86739 11 4.74021 10.9473 4.64645 10.8536C4.55268 10.7598 4.5 10.6326 4.5 10.5C4.5 10.3674 4.55268 10.2402 4.64645 10.1464C4.74021 10.0527 4.86739 10 5 10H7C7.13261 10 7.25979 10.0527 7.35355 10.1464C7.44732 10.2402 7.5 10.3674 7.5 10.5Z" fill="white"/>
</svg>
